<svg width="100" height="105" viewBox="0 0 100 105" fill="none" xmlns="http://www.w3.org/2000/svg">
<g filter="url(#filter0_d_53612_26383)">
<path fill-rule="evenodd" clip-rule="evenodd" d="M14.5417 9.70831C13.765 9.70831 13.1354 10.3379 13.1354 11.1146C13.1354 11.8912 13.765 12.5208 14.5417 12.5208H23.0132L24.6733 19.5223L31.9296 50.125H31.7917C27.7702 50.125 24.6354 53.5399 24.6354 57.5937C24.6354 61.6476 27.7702 65.0625 31.7917 65.0625H75.875C76.6516 65.0625 77.2812 64.4329 77.2812 63.6562C77.2812 62.8796 76.6516 62.25 75.875 62.25H31.7917C29.4619 62.25 27.4479 60.2364 27.4479 57.5937C27.4479 54.9511 29.4619 52.9375 31.7917 52.9375H33.7083H75.875C76.5267 52.9375 77.0929 52.4898 77.2433 51.8557L84.91 19.5223C85.0092 19.1039 84.9115 18.6631 84.6448 18.3257C84.3781 17.9884 83.9717 17.7916 83.5417 17.7916H27.1535L25.4933 10.7901C25.3429 10.156 24.7767 9.70831 24.125 9.70831H14.5417ZM33.7083 74.375C30.7454 74.375 28.4687 76.8851 28.4687 79.8229C28.4687 82.7606 30.7454 85.2708 33.7083 85.2708C36.6713 85.2708 38.9479 82.7606 38.9479 79.8229C38.9479 76.8851 36.6713 74.375 33.7083 74.375ZM72.0417 74.375C69.0787 74.375 66.8021 76.8851 66.8021 79.8229C66.8021 82.7606 69.0787 85.2708 72.0417 85.2708C75.0046 85.2708 77.2812 82.7606 77.2812 79.8229C77.2812 76.8851 75.0046 74.375 72.0417 74.375Z" fill="#040322"/>
</g>
<defs>
<filter id="filter0_d_53612_26383" x="0" y="0" width="100" height="105" filterUnits="userSpaceOnUse" color-interpolation-filters="sRGB">
<feFlood flood-opacity="0" result="BackgroundImageFix"/>
<feColorMatrix in="SourceAlpha" type="matrix" values="0 0 0 0 0 0 0 0 0 0 0 0 0 0 0 0 0 0 127 0" result="hardAlpha"/>
<feOffset dy="4"/>
<feGaussianBlur stdDeviation="2"/>
<feComposite in2="hardAlpha" operator="out"/>
<feColorMatrix type="matrix" values="0 0 0 0 0 0 0 0 0 0 0 0 0 0 0 0 0 0 0.25 0"/>
<feBlend mode="normal" in2="BackgroundImageFix" result="effect1_dropShadow_53612_26383"/>
<feBlend mode="normal" in="SourceGraphic" in2="effect1_dropShadow_53612_26383" result="shape"/>
</filter>
</defs>
</svg>
