<svg width="127" height="80" viewBox="0 0 127 80" fill="none" xmlns="http://www.w3.org/2000/svg">
<path d="M114.251 67.7217C113.039 64.4331 109.767 62.0767 105.921 62.0767C102.075 62.0767 98.8029 64.4331 97.5909 67.7217C97.2658 68.6038 97.0889 69.553 97.0889 70.5417C97.0889 75.2168 101.043 79.0067 105.921 79.0067C110.799 79.0067 114.753 75.2168 114.753 70.5417C114.753 69.553 114.577 68.6038 114.251 67.7217Z" fill="black"/>
<path d="M43.5935 67.7217C42.3816 64.4331 39.1095 62.0767 35.2633 62.0767C31.417 62.0767 28.145 64.4331 26.933 67.7217C26.6079 68.6038 26.431 69.553 26.431 70.5417C26.431 75.2168 30.3854 79.0067 35.2633 79.0067C40.1412 79.0067 44.0955 75.2168 44.0955 70.5417C44.0955 69.553 43.9186 68.6038 43.5935 67.7217Z" fill="black"/>
<path fill-rule="evenodd" clip-rule="evenodd" d="M77.5485 0H16.8345L24.8402 2.82167L24.842 4.32363C23.91 3.39808 22.6262 2.82624 21.2089 2.82624H1.40625C0.6296 2.82624 0 3.45584 0 4.23249C0 5.00914 0.6296 5.63874 1.40625 5.63874H21.2089C22.5033 5.63874 23.5526 6.68808 23.5526 7.9825V17.4125C23.5526 18.7069 22.5033 19.7562 21.2089 19.7562H6.59478C5.81813 19.7562 5.18853 20.3858 5.18853 21.1625C5.18853 21.9391 5.81813 22.5687 6.59478 22.5687H7.29089L7.29421 22.5687H24.8638L24.8806 36.6862H23.1221H13.4236H13.1822C12.4056 36.6862 11.776 37.3158 11.776 38.0925C11.776 38.8691 12.4056 39.4987 13.1822 39.4987H13.4236H23.1221C23.7512 39.4987 24.3481 39.6364 24.8844 39.8833L24.8991 52.2008V53.2249C24.359 53.476 23.757 53.6163 23.1221 53.6163H19.3117C18.535 53.6163 17.9054 54.2459 17.9054 55.0225C17.9054 55.7992 18.535 56.4288 19.3117 56.4288H23.1221C23.736 56.4288 24.3315 56.3501 24.8991 56.2023V65.3857C25.4225 64.4011 26.0908 63.5041 26.8746 62.7186C29.006 60.5761 31.9935 59.2642 35.2632 59.2642C38.534 59.2642 41.5223 60.5769 43.6539 62.7206C45.1338 64.2047 46.2017 66.0863 46.6597 68.2041L79.4235 67.72V1.875C79.4235 0.839466 78.584 0 77.5485 0ZM40.7818 68.2909C40.5075 67.6999 40.1281 67.1565 39.6627 66.6855C38.5769 65.5932 37.0246 64.8892 35.2632 64.8892C33.5018 64.8892 31.9495 65.5932 30.8638 66.6855C30.3751 67.1799 29.9815 67.7541 29.7045 68.3794H34.7933L40.7818 68.2909ZM126.016 43.7981C126.345 44.1464 126.529 44.6077 126.529 45.0872V65.845C126.529 66.8805 125.69 67.72 124.654 67.72H117.201C116.693 65.7987 115.677 64.0895 114.31 62.7193C112.179 60.5763 109.191 59.2642 105.921 59.2642C102.651 59.2642 99.6633 60.5763 97.5318 62.7193C96.1649 64.0895 95.1494 65.7987 94.641 67.72H88.256V22.5733H105.114C105.629 22.5733 106.121 22.7852 106.475 23.1592L126.016 43.7981ZM111.133 67.72H100.709C100.938 67.3474 101.211 66.9999 101.522 66.6848C102.608 65.5929 104.16 64.8892 105.921 64.8892C107.682 64.8892 109.234 65.593 110.32 66.6851C110.632 67.0001 110.904 67.3475 111.133 67.72Z" fill="black"/>
</svg>
